<svg width="45" height="45" viewBox="0 0 45 45" fill="none" xmlns="http://www.w3.org/2000/svg">
  <rect width="45" height="45" rx="8" fill="#FF5789"/>
  <path d="M25.6656 17.8342C25.6656 20.4685 23.5301 22.604 20.8958 22.604C18.2615 22.604 16.126 20.4685 16.126 17.8342C16.126 15.1999 18.2615 13.0644 20.8958 13.0644C23.5301 13.0644 25.6656 15.1999 25.6656 17.8342Z" fill="white"/>
  <path d="M30.1573 11.0037C29.0227 10.9342 28.0735 11.8603 28.0735 12.9719V14.1759C28.143 18.4132 27.2169 21.4696 25.4109 22.9746C25.1792 23.1599 24.9478 23.3451 24.6931 23.5304C23.6048 24.2714 22.2851 24.6881 20.8727 24.6881C19.2287 24.6881 17.7006 24.1092 16.5197 23.1368C14.5746 24.0627 13 25.7298 13 28.5082V32.0044C13 32.5602 13.44 33 13.9956 33H27.7956C28.3513 33 28.7912 32.56 28.7912 32.0044L28.7913 28.5082C28.7913 28.3229 28.7913 28.1609 28.7682 27.9988C28.6757 26.5863 28.9766 25.1739 29.7638 24.0162C31.3382 21.6544 32.1023 18.3434 32.0329 14.1756V13.1104C32.0329 12.0223 31.2224 11.0729 30.1574 11.0035L30.1573 11.0037Z" fill="white"/>
</svg>