<svg width="48" height="48" viewBox="0 0 48 48" fill="none" xmlns="http://www.w3.org/2000/svg">
  <g clip-path="url(#clip0_2_4039)">
    <path d="M24 0C10.8094 0 0 10.9032 0 24.0938C0 37.2843 10.8094 48 24 48C37.1906 48 48 37.2843 48 24.0938C48 10.9032 37.1906 0 24 0Z" fill="#4BB9EC"/>
    <path d="M48 24.0938C48 37.2843 37.1906 48 24 48V0C37.1906 0 48 10.9032 48 24.0938Z" fill="#0095FF"/>
    <path d="M24 5.71875C17.7843 5.71875 12.75 10.8468 12.75 17.0625C12.75 23.2782 17.7843 28.3125 24 28.3125C30.2157 28.3125 35.25 23.2782 35.25 17.0625C35.25 10.8468 30.2157 5.71875 24 5.71875Z" fill="#FDBF00"/>
    <path d="M35.25 17.0625C35.25 23.2782 30.2157 28.3125 24 28.3125V5.71875C30.2157 5.71875 35.25 10.8468 35.25 17.0625Z" fill="#FF9100"/>
    <path d="M29.625 17.0625C29.625 20.1562 27.0938 22.6875 24 22.6875C20.9062 22.6875 18.375 20.1562 18.375 17.0625C18.375 16.2748 18.9935 15.6562 19.7812 15.6562C20.569 15.6562 21.1875 16.2748 21.1875 17.0625C21.1875 18.6094 22.4531 19.875 24 19.875C25.5469 19.875 26.8125 18.6094 26.8125 17.0625C26.8125 16.2748 27.431 15.6562 28.2188 15.6562C29.0065 15.6562 29.625 16.2748 29.625 17.0625Z" fill="#575F64"/>
    <path d="M24 22.6875V19.875C25.5469 19.875 26.8125 18.6094 26.8125 17.0625C26.8125 16.2748 27.431 15.6562 28.2188 15.6562C29.0065 15.6562 29.625 16.2748 29.625 17.0625C29.625 20.1562 27.0938 22.6875 24 22.6875Z" fill="#32393F"/>
    <path d="M37.8094 39.9844C34.125 43.2188 29.2874 45.1875 24 45.1875C18.7126 45.1875 13.875 43.2188 10.1906 39.9844C11.3156 33.375 17.0533 28.3125 24 28.3125C27.8811 28.3125 31.3967 29.8876 33.9562 32.4188C35.9531 34.4436 37.3312 37.0594 37.8094 39.9844Z" fill="#FDBF00"/>
    <path d="M37.8094 39.9844C34.125 43.2188 29.2874 45.1875 24 45.1875V28.3125C27.8811 28.3125 31.3967 29.8876 33.9562 32.4188C35.9531 34.4436 37.3312 37.0594 37.8094 39.9844Z" fill="#FF9100"/>
  </g>
  <defs>
    <clipPath id="clip0_2_4039">
      <rect width="48" height="48" fill="white"/>
    </clipPath>
  </defs>
</svg>