<svg width="134" height="134" viewBox="0 0 134 134" fill="none" xmlns="http://www.w3.org/2000/svg">
  <g clip-path="url(#clip0_2_424)">
    <path d="M93.285 114.126V101.502H24.4568H1.62906V114.126C1.62906 124.848 10.2757 133.668 21.1709 133.668H111.616C101.413 132.976 93.285 124.675 93.285 114.126Z" fill="#D4E1F4"/>
    <path d="M114.385 16.4156L96.3994 0.33252L78.414 16.4156L60.4289 0.33252L42.4435 16.4156L24.4585 0.505307V101.327V101.5H93.2869V114.124C93.2869 124.673 101.415 132.974 111.618 133.666C111.964 133.666 112.483 133.666 112.829 133.666C118.19 133.666 123.205 131.418 126.664 127.959C130.295 124.327 132.371 119.485 132.371 114.124V0.505307L114.385 16.4156Z" fill="#4DCFE0"/>
    <path d="M50.3961 55.3253H82.3891C85.3291 55.3253 87.577 53.0771 87.577 50.1374C87.577 47.1977 85.3288 44.9494 82.3891 44.9494H50.3961C47.456 44.9494 45.2082 47.1977 45.2082 50.1374C45.2082 53.0771 47.456 55.3253 50.3961 55.3253Z" fill="#00BBD3"/>
    <path d="M106.6 69.1587H50.3961C47.456 69.1587 45.2082 71.4069 45.2082 74.3466C45.2082 77.2863 47.4564 79.5346 50.3961 79.5346H106.6C109.54 79.5346 111.788 77.2863 111.788 74.3466C111.788 71.4069 109.54 69.1587 106.6 69.1587Z" fill="#00BBD3"/>
  </g>
  <defs>
    <clipPath id="clip0_2_424">
      <rect width="133.333" height="133.333" fill="white" transform="translate(0.33252 0.33252)"/>
    </clipPath>
  </defs>
</svg>