<svg width="45" height="45" viewBox="0 0 45 45" fill="none" xmlns="http://www.w3.org/2000/svg">
  <rect width="45" height="45" rx="8" fill="#5B5DE9"/>
  <path d="M25.7857 17.2857H19.5V15.7143H25.7857V17.2857ZM29.7143 28.2857V31.4286H30.5C30.7808 31.4286 31.0402 31.5783 31.1805 31.8214C31.3208 32.0645 31.3208 32.3641 31.1805 32.6071C31.0402 32.8502 30.7808 33 30.5 33H17.1429C16.3093 33 15.5099 32.6689 14.9206 32.0794C14.3311 31.4901 14 30.6907 14 29.8571V14.1429C14 13.3093 14.3311 12.5099 14.9206 11.9206C15.5099 11.3311 16.3093 11 17.1429 11H30.5C30.7084 11 30.9083 11.0828 31.0556 11.2301C31.2029 11.3774 31.2857 11.5774 31.2857 11.7857V27.5C31.2857 27.7084 31.2029 27.9083 31.0556 28.0556C30.9083 28.2029 30.7084 28.2857 30.5 28.2857H29.7143ZM17.9286 18.0714C17.9286 18.2798 18.0114 18.4797 18.1587 18.627C18.306 18.7744 18.5059 18.8571 18.7143 18.8571H26.5714C26.7798 18.8571 26.9797 18.7744 27.127 18.627C27.2744 18.4797 27.3571 18.2798 27.3571 18.0714V14.9286C27.3571 14.7202 27.2744 14.5203 27.127 14.373C26.9797 14.2256 26.7798 14.1429 26.5714 14.1429H18.7143C18.5059 14.1429 18.306 14.2256 18.1587 14.373C18.0114 14.5203 17.9286 14.7202 17.9286 14.9286V18.0714ZM28.1429 28.2857H17.1429C16.5815 28.2857 16.0627 28.5853 15.7819 29.0714C15.5013 29.5576 15.5013 30.1567 15.7819 30.6429C16.0627 31.129 16.5815 31.4286 17.1429 31.4286H28.1429V28.2857Z" fill="white"/>
</svg>