<svg width="134" height="134" viewBox="0 0 134 134" fill="none" xmlns="http://www.w3.org/2000/svg">
  <g clip-path="url(#clip0_2_459)">
    <path d="M122.071 112.021C129.57 103.975 133.658 94.0276 133.658 83.6641C133.658 70.6967 127.252 58.9531 116.993 50.6206C116.759 80.3311 88.8187 104.495 54.4993 104.495H31.2725C40.256 119.312 58.5093 129.493 79.4968 129.493H129.492C131.184 129.493 132.694 128.477 133.345 126.915C133.996 125.353 133.632 123.556 132.434 122.384L122.071 112.021Z" fill="#64B5F6"/>
    <path d="M54.5005 4.50711C24.6337 4.50711 0.339297 25.0519 0.339297 50.3358C0.339297 60.6993 4.42742 70.6202 11.9267 78.6923L1.56313 89.0558C0.365336 90.2536 0.000789404 92.0503 0.651765 93.5866C1.30274 95.1489 2.813 96.1645 4.50554 96.1645H54.5005C84.3672 96.1645 108.662 75.6197 108.662 50.3358C108.662 25.0519 84.3672 4.50711 54.5005 4.50711Z" fill="#2196F3"/>
    <path d="M79.4986 37.8351H29.5037C27.2123 37.8351 25.3375 39.7099 25.3375 42.0014C25.3375 44.2928 27.2123 46.1676 29.5037 46.1676H79.4986C81.7901 46.1676 83.6649 44.2928 83.6649 42.0014C83.6649 39.7099 81.7901 37.8351 79.4986 37.8351Z" fill="#FAFAFA"/>
    <path d="M62.8336 54.5001H29.5037C27.2123 54.5001 25.3375 56.3749 25.3375 58.6663C25.3375 60.9578 27.2123 62.8326 29.5037 62.8326H62.8336C65.1251 62.8326 66.9999 60.9578 66.9999 58.6663C66.9999 56.3749 65.1251 54.5001 62.8336 54.5001Z" fill="#FAFAFA"/>
  </g>
  <defs>
    <clipPath id="clip0_2_459">
      <rect width="133.333" height="133.333" fill="white" transform="translate(0.33252 0.33252)"/>
    </clipPath>
  </defs>
</svg>