<svg width="23" height="23" viewBox="0 0 23 23" fill="none" xmlns="http://www.w3.org/2000/svg">
  <g clip-path="url(#clip0_430_11)">
    <path d="M21.0868 19.0958C22.3243 17.7681 22.9988 16.1267 22.9988 14.4166C22.9988 12.2768 21.9418 10.339 20.2489 8.96402C20.2103 13.8666 15.5998 17.854 9.93671 17.854H6.104C7.58638 20.2989 10.5984 21.9789 14.0616 21.9789H22.3114C22.5907 21.9789 22.8399 21.8113 22.9473 21.5535C23.0547 21.2957 22.9946 20.9992 22.7969 20.8059L21.0868 19.0958Z" fill="white"/>
    <path d="M9.93691 1.35472C5.00853 1.35472 0.999653 4.74486 0.999653 8.91701C0.999653 10.6271 1.67424 12.2642 2.91171 13.5962L1.2016 15.3063C1.00395 15.5039 0.943796 15.8004 1.05121 16.0539C1.15863 16.3117 1.40785 16.4793 1.68713 16.4793H9.93691C14.8653 16.4793 18.8742 13.0892 18.8742 8.91701C18.8742 4.74486 14.8653 1.35472 9.93691 1.35472Z" fill="white"/>
    <path d="M14.0618 6.85425H5.81199C5.43388 6.85425 5.12451 7.16361 5.12451 7.54173C5.12451 7.91984 5.43388 8.22921 5.81199 8.22921H14.0618C14.4399 8.22921 14.7492 7.91984 14.7492 7.54173C14.7492 7.16361 14.4399 6.85425 14.0618 6.85425Z" fill="#F77664"/>
    <path d="M11.3118 9.60417H5.81199C5.43388 9.60417 5.12451 9.91354 5.12451 10.2917C5.12451 10.6698 5.43388 10.9791 5.81199 10.9791H11.3118C11.69 10.9791 11.9993 10.6698 11.9993 10.2917C11.9993 9.91354 11.69 9.60417 11.3118 9.60417Z" fill="#F77664"/>
  </g>
  <defs>
    <clipPath id="clip0_430_11">
      <rect width="22.0016" height="22.0016" fill="white" transform="translate(0.998535 0.665848)"/>
    </clipPath>
  </defs>
</svg>