<svg width="45" height="45" viewBox="0 0 45 45" fill="none" xmlns="http://www.w3.org/2000/svg">
  <rect width="45" height="45" rx="8" fill="#FFD057"/>
  <path d="M18.3289 11C16.8185 11 15.6165 12.2018 15.6165 13.7122V28.1781H24.8083C25.0581 28.1781 25.2603 28.3805 25.2605 28.6301V30.4384C25.2605 31.6892 26.1411 32.708 27.3135 32.9436C27.3635 32.9543 27.4113 32.9733 27.4548 33H27.822C29.249 33 30.3838 31.8654 30.3838 30.4384V13.7123C30.3838 12.6166 30.903 11.6635 31.6739 11L18.3289 11ZM18.0651 15.5206C18.0714 15.5204 18.0777 15.5204 18.084 15.5206C18.1154 15.5172 18.1469 15.5172 18.1782 15.5206H22.3973C22.5184 15.5187 22.6351 15.5656 22.7213 15.6507C22.8075 15.7356 22.8558 15.8515 22.8558 15.9726C22.8558 16.0936 22.8075 16.2095 22.7213 16.2944C22.6351 16.3795 22.5184 16.4264 22.3973 16.4245H18.1782C17.9285 16.4559 17.7008 16.2786 17.6697 16.0291C17.6384 15.7794 17.8156 15.5517 18.0651 15.5206L18.0651 15.5206ZM18.0651 18.5343C18.0714 18.5341 18.0777 18.5341 18.084 18.5343C18.1154 18.5309 18.1469 18.5309 18.1782 18.5343H27.8221C27.9432 18.5324 28.0599 18.5793 28.1461 18.6644C28.232 18.7494 28.2806 18.8652 28.2806 18.9863C28.2806 19.1074 28.232 19.2232 28.1461 19.3081C28.0599 19.3933 27.9432 19.4401 27.8221 19.4383H18.1782C17.9285 19.4696 17.7008 19.2924 17.6697 19.0428C17.6384 18.7931 17.8156 18.5654 18.0651 18.5343L18.0651 18.5343ZM18.0651 21.548C18.0714 21.5478 18.0777 21.5478 18.084 21.548C18.1154 21.5447 18.1469 21.5447 18.1782 21.548H27.8221C27.9432 21.5461 28.0599 21.593 28.1461 21.6782C28.232 21.7631 28.2806 21.8789 28.2806 22C28.2806 22.1211 28.232 22.2369 28.1461 22.3218C28.0599 22.407 27.9432 22.4539 27.8221 22.452H18.1782C17.9285 22.4833 17.7008 22.3061 17.6697 22.0566C17.6384 21.8068 17.8156 21.5791 18.0651 21.548L18.0651 21.548ZM18.0651 24.5617C18.0714 24.5615 18.0777 24.5615 18.084 24.5617C18.1154 24.5584 18.1469 24.5584 18.1782 24.5617H22.3973C22.5184 24.5599 22.6351 24.6067 22.7213 24.6919C22.8075 24.7768 22.8558 24.8926 22.8558 25.0137C22.8558 25.1348 22.8075 25.2506 22.7213 25.3356C22.6351 25.4207 22.5184 25.4676 22.3973 25.4657H18.1782C17.9285 25.497 17.7008 25.3198 17.6697 25.0703C17.6384 24.8205 17.8156 24.5929 18.0651 24.5617L18.0651 24.5617ZM12 29.0823V30.4384C12 31.8654 13.1348 33 14.5618 33H25.5619C24.8423 32.3645 24.3565 31.4727 24.3565 30.4384V29.0823H12Z" fill="white"/>
</svg>