<svg width="134" height="134" viewBox="0 0 134 134" fill="none" xmlns="http://www.w3.org/2000/svg">
  <g clip-path="url(#clip0_2_379)">
    <path d="M126.218 30.3393L115.854 40.7012L125.479 50.3288C128.051 52.9015 126.269 57.0632 122.786 57.0632H90.286C88.1272 57.0632 86.3798 55.3158 86.3798 53.157V27.5762C86.3798 25.42 88.1272 23.67 90.286 23.67H123.455C126.825 23.67 128.61 27.9343 126.218 30.3393Z" fill="#FF3053"/>
    <path d="M98.3931 16.2067V41.7875C98.3931 43.9463 96.6431 45.6937 94.4868 45.6937H66.9998C64.8436 45.6937 63.0936 43.9463 63.0936 41.7875V16.2067C63.0936 14.0505 64.8436 12.3005 66.9998 12.3005H94.4868C96.6431 12.3005 98.3931 14.0505 98.3931 16.2067Z" fill="#FF645A"/>
    <path d="M66.9998 74.0343C64.8426 74.0343 63.0936 72.2854 63.0936 70.1281V4.23877C63.0936 2.08148 64.8426 0.33252 66.9998 0.33252C69.1571 0.33252 70.9061 2.08148 70.9061 4.23877V70.1281C70.9061 72.2854 69.1571 74.0343 66.9998 74.0343Z" fill="#FABE2C"/>
    <path d="M44.9158 99.4608L22.975 128.973C22.2458 130.02 20.4893 131.869 19.2132 131.869L11.4523 133.667H4.23877C2.08252 133.667 0.33252 131.917 0.33252 129.76V112.752C0.33252 110.213 1.20752 107.724 2.79346 105.742L21.6893 82.1561C23.231 80.2342 25.5278 79.1222 27.9914 79.1092H28.0408C30.4862 79.1092 32.7752 80.1899 34.3273 82.0806L41.4419 90.7446L44.7283 94.7472C45.8403 96.0988 45.9158 98.0259 44.9158 99.4608Z" fill="#47568C"/>
    <path d="M133.666 112.752V129.76C133.666 131.917 131.916 133.667 129.76 133.667H122.226L115.103 131.874C113.824 131.874 112.321 130.08 111.589 129.033L89.083 99.4608C88.083 98.0259 88.1585 96.0988 89.2705 94.7472L92.5049 90.8071L99.6715 82.0806C101.224 80.1899 103.513 79.1092 105.958 79.1092H106.007C108.471 79.1222 110.768 80.2342 112.309 82.1587L131.203 105.742C132.791 107.721 133.666 110.213 133.666 112.752Z" fill="#29376D"/>
    <path d="M122.226 133.666H101.195L95.3199 130.913L91.8462 133.666H42.1535L39.0712 130.469L32.8045 133.666H11.4529L41.4425 90.7444L54.1431 72.562C54.1873 72.4969 54.2368 72.4344 54.2863 72.3719C57.3488 68.5048 61.9191 66.2704 66.841 66.2261C66.893 66.2235 66.9451 66.2235 66.9972 66.2235H66.9998C71.9816 66.2235 76.617 68.4631 79.7108 72.3719C79.7602 72.4344 79.8071 72.4969 79.854 72.562L92.505 90.8069L122.226 133.666Z" fill="#4793FF"/>
    <path d="M122.224 133.666H101.193L95.3179 130.913L91.8442 133.666H66.839V66.2261C66.891 66.2235 66.9431 66.2235 66.9952 66.2235H66.9978C71.9796 66.2235 76.615 68.4631 79.7088 72.3719C79.7582 72.4344 79.8051 72.4969 79.852 72.562L92.5031 90.8069L122.224 133.666Z" fill="#525CDD"/>
    <path d="M101.194 133.666H91.8447L77.204 111.395C76.0191 109.593 76.5165 107.171 78.3186 105.983C80.1207 104.799 82.5426 105.296 83.7301 107.098L101.194 133.666Z" fill="#47568C"/>
    <path d="M56.793 111.395L42.1524 133.666H32.8034L50.267 107.098C51.4545 105.296 53.8764 104.799 55.6784 105.983C57.4805 107.171 57.9779 109.593 56.793 111.395Z" fill="#525CDD"/>
  </g>
  <defs>
    <clipPath id="clip0_2_379">
      <rect width="133.333" height="133.333" fill="white" transform="translate(0.33252 0.33252)"/>
    </clipPath>
  </defs>
</svg>