<svg width="45" height="45" viewBox="0 0 45 45" fill="none" xmlns="http://www.w3.org/2000/svg">
  <rect width="45" height="45" rx="8" fill="#D357FF"/>
  <path d="M22.9977 11C16.9352 11 12 15.9352 12 21.9977C12 28.0648 16.9352 33 22.9977 33C29.0602 33 33.9954 28.0648 33.9954 21.9977C33.9954 15.9352 29.0602 11 22.9977 11ZM30.6869 19.9586L26.3704 23.0975L28.0201 28.1703C28.0796 28.3581 28.0154 28.5688 27.8552 28.6834C27.7726 28.7431 27.6764 28.7704 27.5849 28.7704C27.4887 28.7704 27.397 28.7429 27.3146 28.6834L22.9979 25.5491L18.6813 28.6834C18.5209 28.8027 18.3009 28.8027 18.1405 28.6834C17.9801 28.5688 17.9114 28.3581 17.9756 28.1703L19.6253 23.0975L15.3088 19.9586C15.1483 19.844 15.0797 19.6377 15.1392 19.4453C15.2034 19.2573 15.3775 19.1291 15.5746 19.1291H20.913L22.5627 14.0565C22.6222 13.8641 22.8008 13.7403 22.9979 13.7403C23.195 13.7403 23.3736 13.8641 23.4333 14.0565L25.083 19.1291H30.4215C30.6186 19.1291 30.7927 19.2576 30.8569 19.4453C30.9162 19.6377 30.8475 19.844 30.6871 19.9586H30.6869Z" fill="white"/>
</svg>