<svg width="24" height="24" viewBox="0 0 24 24" fill="none" xmlns="http://www.w3.org/2000/svg">
  <mask id="mask0_42_2905" style="mask-type:alpha" maskUnits="userSpaceOnUse" x="0" y="0" width="24" height="24">
    <rect width="24" height="24" fill="#1C7ADC"/>
  </mask>
  <g mask="url(#mask0_42_2905)">
    <path d="M4.5001 20.5V11.25L2.6251 12.675L1.7251 11.475L12.0001 3.625L22.2751 11.475L21.3751 12.65L19.5001 11.25V20.5H4.5001ZM6.0001 19H18.0001V10.1L12.0001 5.525L6.0001 10.1V19ZM8.0001 14.875C7.7501 14.875 7.54176 14.7917 7.3751 14.625C7.20843 14.4583 7.1251 14.25 7.1251 14C7.1251 13.75 7.20843 13.5417 7.3751 13.375C7.54176 13.2083 7.7501 13.125 8.0001 13.125C8.2501 13.125 8.45843 13.2083 8.6251 13.375C8.79176 13.5417 8.8751 13.75 8.8751 14C8.8751 14.25 8.79176 14.4583 8.6251 14.625C8.45843 14.7917 8.2501 14.875 8.0001 14.875ZM12.0001 14.875C11.7501 14.875 11.5418 14.7917 11.3751 14.625C11.2084 14.4583 11.1251 14.25 11.1251 14C11.1251 13.75 11.2084 13.5417 11.3751 13.375C11.5418 13.2083 11.7501 13.125 12.0001 13.125C12.2501 13.125 12.4584 13.2083 12.6251 13.375C12.7918 13.5417 12.8751 13.75 12.8751 14C12.8751 14.25 12.7918 14.4583 12.6251 14.625C12.4584 14.7917 12.2501 14.875 12.0001 14.875ZM16.0001 14.875C15.7501 14.875 15.5418 14.7917 15.3751 14.625C15.2084 14.4583 15.1251 14.25 15.1251 14C15.1251 13.75 15.2084 13.5417 15.3751 13.375C15.5418 13.2083 15.7501 13.125 16.0001 13.125C16.2501 13.125 16.4584 13.2083 16.6251 13.375C16.7918 13.5417 16.8751 13.75 16.8751 14C16.8751 14.25 16.7918 14.4583 16.6251 14.625C16.4584 14.7917 16.2501 14.875 16.0001 14.875Z" fill="#1C7ADC"/>
  </g>
</svg>