<svg width="36" height="36" viewBox="0 0 36 36" fill="none" xmlns="http://www.w3.org/2000/svg">
  <g clip-path="url(#clip0_2_4185)">
    <path d="M24.0114 24.011L27.4273 18.8349L24.0114 17.9548C23.564 16.6124 22.8031 15.3444 21.7292 14.2704C20.67 13.2113 19.4171 12.4356 18.0448 11.9882L18 12.033L13.8383 11.8689L11.9886 11.9882C10.6163 12.4356 9.36337 13.2113 8.30426 14.2704L2.77446 19.8002C-0.92482 23.4995 -0.92482 29.5118 2.77446 33.2111C6.57816 37.0148 12.5896 36.8209 16.1994 33.2111L21.7292 27.6954C22.8033 26.6213 23.564 25.3535 24.0114 24.011ZM12.4703 29.4818C10.7996 31.1525 8.1296 31.1078 6.50362 29.4818C4.86281 27.841 4.86281 25.156 6.50362 23.5152L11.9886 18.0443L14.9869 21.0126L18.0001 23.9661L12.4703 29.4818Z" fill="#4A696F"/>
    <path d="M21.7291 27.6955L16.1993 33.2112C12.5895 36.8211 6.57811 37.0149 2.77441 33.2112L6.50351 29.482C8.12948 31.108 10.7995 31.1527 12.4702 29.482L18 23.9664L14.9869 21.0128L21.7291 14.2706C22.8031 15.3445 23.5639 16.6125 24.0114 17.9549L27.4272 18.835L24.0114 24.0111C23.5639 25.3536 22.8031 26.6215 21.7291 27.6955Z" fill="#384949"/>
    <path d="M29.1876 30.6788L27.6959 29.1871C27.2837 28.7749 27.2837 28.1077 27.6959 27.6954C28.1081 27.2833 28.7753 27.2832 29.1876 27.6954L30.6793 29.1871C31.0915 29.5994 31.0915 30.2665 30.6793 30.6788C30.267 31.091 29.5998 31.091 29.1876 30.6788Z" fill="#D2C5C2"/>
    <path d="M6.81241 8.30419L5.32066 6.81251C4.90841 6.40027 4.90841 5.73308 5.32066 5.3209C5.7329 4.90873 6.40009 4.90866 6.81227 5.3209L8.30388 6.81251C8.71612 7.22475 8.71612 7.89195 8.30388 8.30412C7.89164 8.71629 7.22458 8.71636 6.81241 8.30419Z" fill="#DFD7D5"/>
    <path d="M31.2445 21.5483C31.3953 20.9852 31.9736 20.6517 32.5366 20.8024L34.5745 21.3487C35.1376 21.4965 35.4697 22.0778 35.3204 22.6407C35.1696 23.2038 34.5913 23.5374 34.0283 23.3866L31.9904 22.8404C31.4311 22.6907 31.0936 22.1147 31.2445 21.5483Z" fill="#D2C5C2"/>
    <path d="M0.680086 13.3589C0.830836 12.7958 1.40916 12.4622 1.97215 12.613L4.01009 13.1593C4.57097 13.3064 4.90594 13.8877 4.75596 14.4514C4.60521 15.0145 4.02689 15.348 3.4639 15.1973L1.42596 14.6509C0.866625 14.5012 0.529125 13.9252 0.680086 13.3589Z" fill="#DFD7D5"/>
    <path d="M21.3491 34.5741L20.8028 32.5361C20.6521 31.9731 20.9856 31.3948 21.5487 31.2441C22.1118 31.0933 22.6893 31.4247 22.8408 31.9899L23.387 34.0279C23.5378 34.5909 23.2042 35.1692 22.6411 35.3199C22.0749 35.4708 21.4988 35.1334 21.3491 34.5741Z" fill="#D2C5C2"/>
    <path d="M13.1592 4.00945L12.6129 1.97151C12.4621 1.40844 12.7957 0.830192 13.3588 0.679442C13.9218 0.530169 14.5008 0.860075 14.6508 1.42532L15.1971 3.46326C15.3479 4.02632 15.0143 4.60457 14.4513 4.75532C13.885 4.90607 13.309 4.56864 13.1592 4.00945Z" fill="#DFD7D5"/>
    <path d="M33.2253 2.78814C29.526 -0.911145 23.5146 -0.926121 19.8004 2.78814L14.2706 8.30387C13.1967 9.37782 12.4359 10.6457 11.9883 11.9882C11.332 13.9573 11.332 16.0754 11.9884 18.0444C12.4359 19.3868 13.1967 20.6549 14.2706 21.7288C15.3148 22.7731 16.5678 23.5486 17.9551 24.0111L17.9998 23.9663C19.6407 22.3254 19.6406 19.6405 17.9998 17.9997C16.359 16.3589 16.359 13.6738 17.9998 12.033L23.5296 6.5173C24.3351 5.71173 25.3793 5.29414 26.513 5.29414C26.5427 5.2644 26.7963 5.27924 26.856 5.30905C27.6615 5.30898 28.7205 5.74154 29.4962 6.5173C31.137 8.15811 31.1371 10.8431 29.4962 12.4839L24.0113 17.9548C24.6676 19.9239 24.6676 22.042 24.0113 24.0111C25.3686 23.5487 26.6515 22.773 27.6957 21.7288L33.2254 16.213C36.9247 12.5137 36.9246 6.48742 33.2253 2.78814Z" fill="#FFD400"/>
    <path d="M18.0002 23.9666L17.9554 24.0114C16.5682 23.549 15.3151 22.7734 14.271 21.7292L18.0002 18C19.641 19.6409 19.6411 22.3258 18.0002 23.9666Z" fill="#FF9F00"/>
    <path d="M33.2259 16.2135L27.6961 21.7292C26.652 22.7734 25.3691 23.5491 24.0117 24.0115C24.6681 22.0424 24.6681 19.9243 24.0117 17.9552L29.4967 12.4844C31.1375 10.8435 31.1375 8.15852 29.4967 6.51771L33.2258 2.78854C36.9252 6.48775 36.9253 12.514 33.2259 16.2135Z" fill="#FF9F00"/>
  </g>
  <defs>
    <clipPath id="clip0_2_4185">
      <rect width="36" height="36" fill="white"/>
    </clipPath>
  </defs>
</svg>