<svg width="36" height="36" viewBox="0 0 36 36" fill="none" xmlns="http://www.w3.org/2000/svg">
  <g clip-path="url(#clip0_2_4295)">
    <path d="M33.8201 0L23.2732 29.6719H12.7263C12.1355 29.6719 11.6716 29.2078 11.6716 28.6172V1.05469C11.6716 0.463898 12.1355 0 12.7263 0H33.8201Z" fill="#575F64"/>
    <path d="M33.8203 0L23.2734 29.6719H22.2188V0H33.8203Z" fill="#32393F"/>
    <path d="M17.5359 13.9497L13.3171 10.7857C12.9795 10.5747 12.5788 10.5536 12.2204 10.7437C11.8828 10.9334 11.6719 11.2921 11.6719 11.6717V12.7264H2.17969C1.5889 12.7264 1.125 13.1903 1.125 13.7811V15.8905C1.125 16.481 1.5889 16.9452 2.17969 16.9452H11.6719V17.9998C11.6719 18.3794 11.8828 18.7381 12.2204 18.9279C12.5577 19.1177 12.9795 19.0966 13.3171 18.8856L17.5359 15.7216C17.8311 15.5109 18 15.1942 18 14.8358C18 14.4771 17.8311 14.1607 17.5359 13.9497Z" fill="#9CDD05"/>
    <path d="M18 14.8358C18 15.1943 17.8311 15.511 17.5359 15.7216L13.3171 18.8857C12.9795 19.0966 12.5577 19.1178 12.2204 18.928C11.8828 18.7382 11.6719 18.3795 11.6719 17.9999V16.9452H2.17969C1.5889 16.9452 1.125 16.481 1.125 15.8905V14.8358H18Z" fill="#66BB00"/>
    <path d="M22.7532 35.8628C22.4225 35.6755 22.2188 35.3253 22.2188 34.9452V7.38265C22.2188 7.01186 22.4135 6.66881 22.7304 6.47848L33.2773 0.15034C33.6039 -0.0454914 34.0098 -0.0504353 34.3403 0.136882C34.671 0.324474 34.875 0.674389 34.875 1.05452V28.6171C34.875 28.9879 34.6803 29.3309 34.3631 29.5212L23.8162 35.8494C23.4896 36.0449 23.0837 36.0502 22.7532 35.8628Z" fill="#FF9100"/>
    <path d="M28.5491 20.1094C28.5491 20.6919 28.077 21.1641 27.4944 21.1641C26.9118 21.1641 26.4397 20.6919 26.4397 20.1094C26.4397 19.5268 26.9118 19.0547 27.4944 19.0547C28.077 19.0547 28.5491 19.5268 28.5491 20.1094Z" fill="#32393F"/>
  </g>
  <defs>
    <clipPath id="clip0_2_4295">
      <rect width="36" height="36" fill="white"/>
    </clipPath>
  </defs>
</svg>