<svg width="48" height="48" viewBox="0 0 48 48" fill="none" xmlns="http://www.w3.org/2000/svg">
  <g clip-path="url(#clip0_2_4393)">
    <path d="M24 48C37.2548 48 48 37.2548 48 24C48 10.7452 37.2548 0 24 0C10.7452 0 0 10.7452 0 24C0 37.2548 10.7452 48 24 48Z" fill="#7343DD"/>
    <path d="M48 24C48 23.8753 47.9972 23.7514 47.9953 23.6271L31.1302 6.76207C31.1302 6.76207 18.75 2.24997 17.3438 13.4062C15.9375 24.5625 12.6118 40.0288 12.6118 40.0288L20.3302 47.7209C21.5266 47.9046 22.7521 48 24 48C37.2548 48 48 37.2548 48 24Z" fill="#552CB7"/>
    <path d="M33.5794 19.9703H29.7723V13.1526C29.7723 9.96956 27.1828 7.38 23.9997 7.38C20.8166 7.38 18.227 9.96956 18.227 13.1526V19.9703H14.4199V13.1526C14.4199 7.87031 18.7174 3.57281 23.9997 3.57281C29.2819 3.57281 33.5794 7.87022 33.5794 13.1526V19.9703Z" fill="#F4F2EF"/>
    <path d="M33.5794 13.1523V19.9707H29.7722V13.1523C29.7722 9.9695 27.1828 7.38012 24 7.38012V3.57294C29.2819 3.57294 33.5794 7.87044 33.5794 13.1523Z" fill="#E5E1DC"/>
    <path d="M30.9759 41.8124H17.0236C13.5173 41.8124 10.6748 38.9699 10.6748 35.4636V19.5661H37.3247V35.4636C37.3247 38.9699 34.4822 41.8124 30.9759 41.8124Z" fill="#FFC136"/>
    <path d="M37.3247 19.5666V35.4638C37.3247 38.9701 34.4822 41.8126 30.9759 41.8126H24V19.5666H37.3247Z" fill="#F4A300"/>
    <path d="M27.5104 28.1392C27.5104 26.2003 25.9387 24.6286 23.9998 24.6286C22.061 24.6286 20.4893 26.2003 20.4893 28.1392C20.4893 29.4507 21.209 30.5935 22.2744 31.1962V37.0021H25.7251V31.1962C26.7907 30.5935 27.5104 29.4506 27.5104 28.1392Z" fill="#655665"/>
    <path d="M27.5109 28.1391C27.5109 29.4506 26.7909 30.5935 25.725 31.1963V37.0022H24V24.6291C25.9388 24.6291 27.5109 26.2003 27.5109 28.1391Z" fill="#493E49"/>
  </g>
  <defs>
    <clipPath id="clip0_2_4393">
      <rect width="48" height="48" fill="white"/>
    </clipPath>
  </defs>
</svg>