<svg width="45" height="45" viewBox="0 0 45 45" fill="none" xmlns="http://www.w3.org/2000/svg">
  <rect width="45" height="45" rx="8" fill="#649FF7"/>
  <path fill-rule="evenodd" clip-rule="evenodd" d="M19.4493 11H27.5669C28.5255 11 29.3966 11.3918 30.028 12.0233C30.6594 12.6547 31.0514 13.5259 31.0514 14.4844V31.5156C31.0514 32.4741 30.6596 33.3453 30.028 33.9767C29.3966 34.6081 28.5255 35 27.5669 35H16.4844C15.5259 35 14.6547 34.6082 14.0233 33.9767C13.3919 33.3453 13 32.4741 13 31.5156V17.4493H15.2965C16.4403 17.4493 17.479 16.9832 18.231 16.2313C18.9831 15.4793 19.449 14.4413 19.449 13.2968V11.0003L19.4493 11ZM13.3296 16.3242L18.3239 11.3299V13.2971C18.3239 14.1307 17.9836 14.8872 17.4352 15.4362C16.8868 15.9845 16.1296 16.3249 15.2961 16.3249H13.3289L13.3296 16.3242ZM24.6195 18.8964C24.6195 18.5855 24.8716 18.3341 25.1819 18.3341C25.4921 18.3341 25.7442 18.5862 25.7442 18.8964V23.8549C25.7442 24.1658 25.4921 24.4172 25.1819 24.4172C24.8716 24.4172 24.6195 24.1651 24.6195 23.8549V18.8964ZM16.8883 31.2046C16.5774 31.2046 16.3259 30.9525 16.3259 30.6422C16.3259 30.3313 16.578 30.0799 16.8883 30.0799H20.2183C20.5293 30.0799 20.7807 30.332 20.7807 30.6422C20.7807 30.9524 20.5286 31.2046 20.2183 31.2046H16.8883ZM16.8883 27.5364C16.5774 27.5364 16.3259 27.2843 16.3259 26.9741C16.3259 26.6631 16.578 26.4117 16.8883 26.4117H27.1635C27.4744 26.4117 27.7259 26.6638 27.7259 26.9741C27.7259 27.2843 27.4738 27.5364 27.1635 27.5364H16.8883ZM18.3071 21.5628C18.3071 21.2519 18.5592 21.0005 18.8695 21.0005C19.1797 21.0005 19.4318 21.2526 19.4318 21.5628V23.8549C19.4318 24.1658 19.1797 24.4173 18.8695 24.4173C18.5593 24.4173 18.3071 24.1651 18.3071 23.8549V21.5628ZM21.4637 20.1324C21.4637 19.8222 21.7158 19.5701 22.0261 19.5701C22.3363 19.5701 22.5884 19.8222 22.5884 20.1324V23.8549C22.5884 24.1658 22.3363 24.4173 22.0261 24.4173C21.7159 24.4173 21.4637 24.1651 21.4637 23.8549V20.1324Z" fill="white"/>
</svg>